<?xml version="1.0" encoding="UTF-8"?>
<!DOCTYPE svg PUBLIC "-//W3C//DTD SVG 1.1//EN" "http://www.w3.org/Graphics/SVG/1.1/DTD/svg11.dtd">
<!-- Creator: CorelDRAW 2020 (64-Bit) -->
<svg xmlns="http://www.w3.org/2000/svg" xml:space="preserve" width="3.1974in" height="0.613016in" version="1.1" style="shape-rendering:geometricPrecision; text-rendering:geometricPrecision; image-rendering:optimizeQuality; fill-rule:evenodd; clip-rule:evenodd"
viewBox="0 0 221.87 42.54"
 xmlns:xlink="http://www.w3.org/1999/xlink"
 xmlns:xodm="http://www.corel.com/coreldraw/odm/2003">
 <defs>
  <style type="text/css">
   <![CDATA[
    .fil1 {fill:black}
    .fil0 {fill:black;fill-rule:nonzero}
   ]]>
  </style>
 </defs>
 <g id="Layer_x0020_1">
  <metadata id="CorelCorpID_0Corel-Layer"/>
  <path class="fil0" d="M57.94 6.6c-0.76,-0.34 -1.37,-0.5 -1.83,-0.5 -0.32,0 -0.57,0.06 -0.76,0.17 -0.19,0.11 -0.28,0.27 -0.28,0.48 0,0.16 0.05,0.29 0.14,0.38 0.09,0.1 0.48,0.33 1.16,0.7 0.68,0.36 1.18,0.71 1.5,1.03 0.32,0.32 0.48,0.74 0.48,1.26 0,0.63 -0.22,1.13 -0.65,1.48 -0.44,0.35 -1.04,0.52 -1.83,0.52 -0.18,0 -0.32,-0.01 -0.41,-0.02 -0.1,-0.01 -0.23,-0.03 -0.39,-0.05 -0.16,-0.02 -0.32,-0.06 -0.47,-0.1 -0.15,-0.05 -0.43,-0.17 -0.83,-0.36l-0.46 -0.21 0.57 -1.24c0.45,0.24 0.82,0.42 1.12,0.53 0.3,0.11 0.6,0.17 0.9,0.17 0.31,0 0.56,-0.06 0.75,-0.19 0.19,-0.13 0.28,-0.3 0.28,-0.51 0,-0.16 -0.04,-0.29 -0.13,-0.4 -0.09,-0.11 -0.25,-0.23 -0.49,-0.36l-1.09 -0.62c-0.63,-0.36 -1.06,-0.68 -1.29,-0.96 -0.23,-0.28 -0.35,-0.61 -0.35,-1 0,-0.36 0.08,-0.66 0.23,-0.9 0.15,-0.24 0.35,-0.44 0.59,-0.61 0.24,-0.17 0.49,-0.29 0.76,-0.36 0.27,-0.07 0.6,-0.11 1,-0.11 0.47,0 0.84,0.04 1.12,0.12 0.27,0.08 0.49,0.15 0.65,0.21 0.16,0.06 0.35,0.14 0.56,0.25l-0.53 1.21zm1.78 5.38l0 -7.05 1.35 0 0 7.05 -1.35 0zm7.14 -5.38c-0.76,-0.34 -1.37,-0.5 -1.83,-0.5 -0.32,0 -0.57,0.06 -0.76,0.17 -0.19,0.11 -0.28,0.27 -0.28,0.48 0,0.16 0.05,0.29 0.14,0.38 0.09,0.1 0.48,0.33 1.16,0.7 0.68,0.36 1.18,0.71 1.5,1.03 0.32,0.32 0.48,0.74 0.48,1.26 0,0.63 -0.22,1.13 -0.65,1.48 -0.44,0.35 -1.04,0.52 -1.83,0.52 -0.18,0 -0.32,-0.01 -0.41,-0.02 -0.1,-0.01 -0.23,-0.03 -0.39,-0.05 -0.16,-0.02 -0.32,-0.06 -0.47,-0.1 -0.15,-0.05 -0.43,-0.17 -0.83,-0.36l-0.46 -0.21 0.57 -1.24c0.45,0.24 0.82,0.42 1.12,0.53 0.3,0.11 0.6,0.17 0.9,0.17 0.31,0 0.56,-0.06 0.75,-0.19 0.19,-0.13 0.28,-0.3 0.28,-0.51 0,-0.16 -0.04,-0.29 -0.13,-0.4 -0.09,-0.11 -0.25,-0.23 -0.49,-0.36l-1.09 -0.62c-0.63,-0.36 -1.06,-0.68 -1.29,-0.96 -0.23,-0.28 -0.35,-0.61 -0.35,-1 0,-0.36 0.08,-0.66 0.23,-0.9 0.15,-0.24 0.35,-0.44 0.59,-0.61 0.24,-0.17 0.49,-0.29 0.76,-0.36 0.27,-0.07 0.6,-0.11 1,-0.11 0.47,0 0.84,0.04 1.12,0.12 0.27,0.08 0.49,0.15 0.65,0.21 0.16,0.06 0.35,0.14 0.56,0.25l-0.53 1.21zm4.4 -0.52l0 5.9 -1.35 0 0 -5.9 -2.12 0 0 -1.14 5.58 0 0 1.14 -2.12 0zm3.18 5.9l0 -7.05 4.3 0 0 1.14 -2.95 0 0 1.73 2.42 0 0 1.14 -2.42 0 0 1.88 3.09 0 0 1.14 -4.44 0zm11.88 0l0 -5.17c-0.04,0.24 -0.08,0.43 -0.12,0.56 -0.05,0.14 -0.09,0.28 -0.14,0.43l-1.62 4.17 -1.2 0 -1.48 -4.1c-0.06,-0.2 -0.11,-0.37 -0.14,-0.51 -0.03,-0.14 -0.07,-0.34 -0.12,-0.6l0 5.21 -1.22 0 0 -7.05 1.62 0 1.88 5.03c0.07,0.16 0.11,0.35 0.13,0.55 0.02,-0.16 0.04,-0.27 0.06,-0.33 0.02,-0.06 0.04,-0.14 0.08,-0.21l1.96 -5.03 1.62 0 0 7.05 -1.28 0zm7.24 0l-0.56 -1.74 -2.36 0 -0.58 1.74 -1.41 0 2.56 -7.05 1.21 0 2.56 7.05 -1.41 0zm-1.74 -5.44l-0.81 2.55 1.63 0 -0.82 -2.55z"/>
  <path class="fil0" d="M59.43 23.95c-0.65,0.69 -1.6,1.04 -2.86,1.04l-2.61 0 0 -7.05 2.62 0c0.67,0 1.23,0.08 1.67,0.24 0.44,0.16 0.83,0.41 1.16,0.76 0.33,0.35 0.58,0.74 0.74,1.17 0.16,0.43 0.25,0.87 0.25,1.34 0,0.98 -0.32,1.82 -0.97,2.51zm-1.29 -4.41c-0.38,-0.28 -0.94,-0.42 -1.69,-0.42l-1.07 0 0 4.67 1.07 0c0.8,0 1.42,-0.2 1.85,-0.61 0.44,-0.41 0.65,-0.99 0.65,-1.74 0,-0.41 -0.07,-0.78 -0.22,-1.12 -0.15,-0.34 -0.34,-0.6 -0.59,-0.79zm3.5 5.45l0 -7.05 4.3 0 0 1.14 -2.95 0 0 1.73 2.42 0 0 1.14 -2.42 0 0 1.88 3.09 0 0 1.14 -4.44 0zm59.5 -2.99c-0.48,0.4 -1.17,0.61 -2.09,0.61 -0.2,0 -0.42,-0.01 -0.65,-0.03l0 2.42 -1.35 0 0 -7.05 2.42 0c0.46,0 0.84,0.04 1.12,0.13 0.28,0.09 0.58,0.28 0.89,0.59 0.31,0.31 0.47,0.79 0.47,1.44 0,0.81 -0.27,1.44 -0.8,1.9zm-1.8 -2.91l-0.94 0 0 2.34 0.17 0 0.17 0 0.3 0c0.52,0 0.9,-0.1 1.14,-0.3 0.24,-0.2 0.36,-0.51 0.36,-0.94 0,-0.74 -0.4,-1.11 -1.21,-1.11zm7.63 5.9l-0.56 -1.74 -2.36 0 -0.58 1.74 -1.41 0 2.56 -7.05 1.21 0 2.56 7.05 -1.41 0zm-1.74 -5.44l-0.81 2.55 1.63 0 -0.82 -2.55zm7.78 5.43l-1.62 -2.82 -0.67 -0 0 2.82 -1.35 0 0 -7.05 2.35 0c0.53,0 0.93,0.04 1.19,0.11 0.27,0.07 0.55,0.25 0.85,0.53 0.3,0.28 0.45,0.75 0.45,1.41 0,0.54 -0.1,0.94 -0.29,1.2 -0.2,0.26 -0.37,0.43 -0.52,0.52 -0.15,0.09 -0.37,0.17 -0.67,0.25l1.75 3.03 -1.47 -0zm-1.42 -5.9l-0.88 0 0 1.94 0.88 0c0.82,0 1.23,-0.33 1.23,-1 0,-0.33 -0.09,-0.57 -0.28,-0.72 -0.19,-0.14 -0.5,-0.22 -0.95,-0.22zm7.99 5.9l-0.56 -1.74 -2.36 0 -0.58 1.74 -1.41 0 2.56 -7.05 1.21 0 2.56 7.05 -1.41 0zm-1.74 -5.44l-0.81 2.55 1.63 0 -0.82 -2.55zm6.81 5.44l0 -7.05 1.35 0 0 5.9 2.89 0 0 1.14 -4.24 0zm9.26 0l-0.56 -1.74 -2.36 0 -0.58 1.74 -1.41 0 2.56 -7.05 1.21 0 2.56 7.05 -1.41 0zm-1.74 -5.44l-0.81 2.55 1.63 0 -0.82 -2.55zm8.04 0.06c-0.76,-0.34 -1.37,-0.5 -1.83,-0.5 -0.32,0 -0.57,0.06 -0.76,0.17 -0.19,0.11 -0.28,0.27 -0.28,0.48 0,0.16 0.05,0.29 0.14,0.38 0.09,0.1 0.48,0.33 1.16,0.7 0.68,0.36 1.18,0.71 1.5,1.03 0.32,0.32 0.48,0.74 0.48,1.26 0,0.63 -0.22,1.13 -0.65,1.48 -0.44,0.35 -1.04,0.52 -1.83,0.52 -0.18,0 -0.32,-0.01 -0.41,-0.02 -0.1,-0.01 -0.23,-0.03 -0.39,-0.05 -0.16,-0.02 -0.32,-0.06 -0.47,-0.1 -0.15,-0.05 -0.43,-0.17 -0.83,-0.36l-0.46 -0.21 0.57 -1.24c0.45,0.24 0.82,0.42 1.12,0.53 0.3,0.11 0.6,0.17 0.9,0.17 0.31,0 0.56,-0.06 0.75,-0.19 0.19,-0.13 0.28,-0.3 0.28,-0.51 0,-0.16 -0.04,-0.29 -0.13,-0.4 -0.09,-0.11 -0.25,-0.23 -0.49,-0.36l-1.09 -0.62c-0.63,-0.36 -1.06,-0.68 -1.29,-0.96 -0.23,-0.28 -0.35,-0.61 -0.35,-1 0,-0.36 0.08,-0.66 0.23,-0.9 0.15,-0.24 0.35,-0.44 0.59,-0.61 0.24,-0.17 0.49,-0.29 0.76,-0.36 0.27,-0.07 0.6,-0.11 1,-0.11 0.47,0 0.84,0.04 1.12,0.12 0.27,0.08 0.49,0.15 0.65,0.21 0.16,0.06 0.35,0.14 0.56,0.25l-0.53 1.21zm-85.02 5.28c-0.36,0.09 -0.67,0.15 -0.95,0.18 -0.27,0.04 -0.55,0.05 -0.83,0.05 -1.18,0 -2.13,-0.34 -2.87,-1.02 -0.73,-0.68 -1.1,-1.57 -1.1,-2.66 0,-0.53 0.1,-1.02 0.3,-1.48 0.2,-0.46 0.49,-0.86 0.86,-1.2 0.37,-0.34 0.77,-0.58 1.21,-0.73 0.43,-0.15 0.96,-0.22 1.57,-0.22 0.53,0 0.96,0.04 1.27,0.11 0.31,0.07 0.53,0.14 0.66,0.18 0.13,0.05 0.33,0.13 0.6,0.24l-0.33 1.12 -0.58 -0.2c-0.51,-0.17 -0.99,-0.26 -1.45,-0.26 -0.79,0 -1.44,0.22 -1.94,0.66 -0.5,0.44 -0.75,1.01 -0.75,1.71 0,0.72 0.27,1.32 0.8,1.81 0.53,0.49 1.19,0.73 1.98,0.73 0.26,0 0.56,-0.05 0.92,-0.15l0 -1.95 1.35 0 0 2.89 -0.72 0.17zm2.46 0.1l0 -7.05 4.3 0 0 1.14 -2.95 0 0 1.73 2.42 0 0 1.14 -2.42 0 0 1.88 3.09 0 0 1.14 -4.44 0zm9.67 -5.38c-0.76,-0.34 -1.37,-0.5 -1.83,-0.5 -0.32,0 -0.57,0.06 -0.76,0.17 -0.19,0.11 -0.28,0.27 -0.28,0.48 0,0.16 0.05,0.29 0.14,0.38 0.09,0.1 0.48,0.33 1.16,0.7 0.68,0.36 1.18,0.71 1.5,1.03 0.32,0.32 0.48,0.74 0.48,1.26 0,0.63 -0.22,1.13 -0.65,1.48 -0.44,0.35 -1.04,0.52 -1.83,0.52 -0.18,0 -0.32,-0.01 -0.41,-0.02 -0.1,-0.01 -0.23,-0.03 -0.39,-0.05 -0.16,-0.02 -0.32,-0.06 -0.47,-0.1 -0.15,-0.05 -0.43,-0.17 -0.83,-0.36l-0.46 -0.21 0.57 -1.24c0.45,0.24 0.82,0.42 1.12,0.53 0.3,0.11 0.6,0.17 0.9,0.17 0.31,0 0.56,-0.06 0.75,-0.19 0.19,-0.13 0.28,-0.3 0.28,-0.51 0,-0.16 -0.04,-0.29 -0.13,-0.4 -0.09,-0.11 -0.25,-0.23 -0.49,-0.36l-1.09 -0.62c-0.63,-0.36 -1.06,-0.68 -1.29,-0.96 -0.23,-0.28 -0.35,-0.61 -0.35,-1 0,-0.36 0.08,-0.66 0.23,-0.9 0.15,-0.24 0.35,-0.44 0.59,-0.61 0.24,-0.17 0.49,-0.29 0.76,-0.36 0.27,-0.07 0.6,-0.11 1,-0.11 0.47,0 0.84,0.04 1.12,0.12 0.27,0.08 0.49,0.15 0.65,0.21 0.16,0.06 0.35,0.14 0.56,0.25l-0.53 1.21zm4.4 -0.52l0 5.9 -1.35 0 0 -5.9 -2.12 0 0 -1.14 5.58 0 0 1.14 -2.12 0zm3.14 5.9l0 -7.05 1.35 0 0 7.05 -1.35 0zm6.75 -7.38l-0.99 0 1.02 -1.26 1.19 -0 -1.21 1.26zm-0.39 7.52c-1.11,0 -2.01,-0.34 -2.71,-1.03 -0.7,-0.68 -1.05,-1.57 -1.05,-2.64 0,-1.09 0.35,-1.97 1.04,-2.65 0.7,-0.67 1.6,-1.01 2.71,-1.01 1.12,0 2.02,0.34 2.71,1.01 0.69,0.67 1.03,1.56 1.03,2.65 0,1.08 -0.35,1.96 -1.05,2.64 -0.7,0.68 -1.6,1.03 -2.7,1.03zm0 -6.16c-0.67,0 -1.22,0.24 -1.66,0.71 -0.44,0.47 -0.66,1.07 -0.66,1.78 0,0.73 0.22,1.32 0.65,1.79 0.44,0.47 0.99,0.7 1.67,0.7 0.66,0 1.21,-0.24 1.65,-0.71 0.44,-0.47 0.66,-1.07 0.66,-1.78 0,-0.71 -0.22,-1.31 -0.66,-1.78 -0.44,-0.47 -0.99,-0.71 -1.65,-0.71zm9.74 6.09l-3.03 -4.57 -0.15 -0.27 -0.09 -0.15 -0.09 -0.24 0 5.17 -1.28 0 0 -7.05 1.55 0 2.96 4.64 0.07 0.15 0.06 0.14 0.06 0.18 0.06 0.12 0 -5.23 1.28 0 0 7.11 -1.42 0zm53.73 -0.07l0 -7.05 4.3 0 0 1.14 -2.95 0 0 1.73 2.42 0 0 1.14 -2.42 0 0 1.88 3.09 0 0 1.14 -4.44 0zm8.39 0.2l-0.94 0 -2.62 -7.25 1.48 0 1.62 4.76 0.02 0.1 0.02 0.12 0.03 0.13 -0.01 -0.07c0,-0.06 0.01,-0.12 0.03,-0.18l0.04 -0.09 1.54 -4.76 1.41 0 -2.62 7.25zm3.58 -0.2l0 -7.05 1.35 0 0 7.05 -1.35 0zm8.64 -1.04c-0.65,0.69 -1.6,1.04 -2.86,1.04l-2.61 0 0 -7.05 2.62 0c0.67,0 1.23,0.08 1.67,0.24 0.44,0.16 0.83,0.41 1.16,0.76 0.33,0.35 0.58,0.74 0.74,1.17 0.16,0.43 0.25,0.87 0.25,1.34 0,0.98 -0.32,1.82 -0.97,2.51zm-1.29 -4.41c-0.38,-0.28 -0.94,-0.42 -1.69,-0.42l-1.07 0 0 4.67 1.07 0c0.8,0 1.42,-0.2 1.85,-0.61 0.44,-0.41 0.65,-0.99 0.65,-1.74 0,-0.41 -0.07,-0.78 -0.22,-1.12 -0.15,-0.34 -0.34,-0.6 -0.59,-0.79zm3.5 5.45l0 -7.05 4.3 0 0 1.14 -2.95 0 0 1.73 2.42 0 0 1.14 -2.42 0 0 1.88 3.09 0 0 1.14 -4.44 0zm10.47 0.07l-3.03 -4.57 -0.15 -0.27 -0.09 -0.15 -0.09 -0.24 0 5.17 -1.28 0 0 -7.05 1.55 0 2.96 4.64 0.07 0.15 0.06 0.14 0.06 0.18 0.06 0.12 0 -5.23 1.28 0 0 7.11 -1.42 0zm8.17 -5.51c-0.46,-0.33 -1,-0.49 -1.63,-0.49 -0.68,0 -1.24,0.21 -1.68,0.64 -0.43,0.43 -0.65,0.98 -0.65,1.66 0,0.76 0.23,1.37 0.7,1.83 0.46,0.46 1.08,0.68 1.85,0.68 0.46,0 0.98,-0.11 1.55,-0.33l0.25 1.13c-0.18,0.08 -0.35,0.15 -0.51,0.2 -0.16,0.06 -0.31,0.1 -0.46,0.14 -0.15,0.04 -0.32,0.06 -0.51,0.09 -0.19,0.02 -0.4,0.03 -0.61,0.03 -0.55,0 -1.03,-0.07 -1.44,-0.21 -0.41,-0.14 -0.79,-0.37 -1.15,-0.69 -0.36,-0.32 -0.64,-0.72 -0.84,-1.22 -0.21,-0.5 -0.31,-1.02 -0.31,-1.58 0,-1.06 0.35,-1.92 1.04,-2.6 0.69,-0.68 1.59,-1.02 2.71,-1.02 0.88,0 1.62,0.22 2.21,0.67l-0.51 1.07zm1.69 5.44l0 -7.05 1.35 0 0 7.05 -1.35 0zm7.21 0l-0.56 -1.74 -2.36 0 -0.58 1.74 -1.41 0 2.56 -7.05 1.21 0 2.56 7.05 -1.41 0zm-1.74 -5.44l-0.81 2.55 1.63 0 -0.82 -2.55zm8.04 0.06c-0.76,-0.34 -1.37,-0.5 -1.83,-0.5 -0.32,0 -0.57,0.06 -0.76,0.17 -0.19,0.11 -0.28,0.27 -0.28,0.48 0,0.16 0.05,0.29 0.14,0.38 0.09,0.1 0.48,0.33 1.16,0.7 0.68,0.36 1.18,0.71 1.5,1.03 0.32,0.32 0.48,0.74 0.48,1.26 0,0.63 -0.22,1.13 -0.65,1.48 -0.44,0.35 -1.04,0.52 -1.83,0.52 -0.18,0 -0.32,-0.01 -0.41,-0.02 -0.1,-0.01 -0.23,-0.03 -0.39,-0.05 -0.16,-0.02 -0.32,-0.06 -0.47,-0.1 -0.15,-0.05 -0.43,-0.17 -0.83,-0.36l-0.46 -0.21 0.57 -1.24c0.45,0.24 0.82,0.42 1.12,0.53 0.3,0.11 0.6,0.17 0.9,0.17 0.31,0 0.56,-0.06 0.75,-0.19 0.19,-0.13 0.28,-0.3 0.28,-0.51 0,-0.16 -0.04,-0.29 -0.13,-0.4 -0.09,-0.11 -0.25,-0.23 -0.49,-0.36l-1.09 -0.62c-0.63,-0.36 -1.06,-0.68 -1.29,-0.96 -0.23,-0.28 -0.35,-0.61 -0.35,-1 0,-0.36 0.08,-0.66 0.23,-0.9 0.15,-0.24 0.35,-0.44 0.59,-0.61 0.24,-0.17 0.49,-0.29 0.76,-0.36 0.27,-0.07 0.6,-0.11 1,-0.11 0.47,0 0.84,0.04 1.12,0.12 0.27,0.08 0.49,0.15 0.65,0.21 0.16,0.06 0.35,0.14 0.56,0.25l-0.53 1.21z"/>
  <path class="fil0" d="M59.44 36.75c-0.65,0.69 -1.6,1.04 -2.86,1.04l-2.61 0 0 -7.05 2.62 0c0.67,0 1.23,0.08 1.67,0.24 0.44,0.16 0.83,0.41 1.16,0.76 0.33,0.35 0.58,0.74 0.74,1.17 0.16,0.43 0.25,0.87 0.25,1.34 0,0.98 -0.32,1.82 -0.97,2.51zm-1.3 -4.41c-0.38,-0.28 -0.94,-0.42 -1.69,-0.42l-1.07 0 0 4.68 1.07 0c0.8,0 1.42,-0.2 1.85,-0.61 0.44,-0.41 0.65,-0.99 0.65,-1.74 0,-0.41 -0.07,-0.78 -0.22,-1.12 -0.15,-0.34 -0.34,-0.6 -0.59,-0.79zm3.5 5.45l0 -7.05 4.3 0 0 1.15 -2.95 0 0 1.73 2.42 0 0 1.15 -2.42 0 0 1.88 3.09 0 0 1.15 -4.44 0zm8.44 0l0 -7.05 1.35 0 0 5.91 2.89 0 0 1.15 -4.24 0zm8.42 0.14c-1.11,0 -2.01,-0.34 -2.71,-1.03 -0.7,-0.68 -1.05,-1.57 -1.05,-2.64 0,-1.09 0.35,-1.97 1.04,-2.65 0.7,-0.67 1.6,-1.01 2.71,-1.01 1.12,0 2.02,0.34 2.71,1.01 0.69,0.67 1.03,1.56 1.03,2.65 0,1.08 -0.35,1.96 -1.05,2.64 -0.7,0.69 -1.6,1.03 -2.7,1.03zm0 -6.16c-0.67,0 -1.23,0.24 -1.66,0.71 -0.44,0.47 -0.66,1.07 -0.66,1.78 0,0.73 0.22,1.33 0.65,1.79 0.44,0.47 0.99,0.7 1.67,0.7 0.66,0 1.21,-0.24 1.65,-0.71 0.44,-0.47 0.66,-1.07 0.66,-1.78 0,-0.71 -0.22,-1.31 -0.66,-1.78 -0.44,-0.47 -0.99,-0.71 -1.65,-0.71zm8.95 0.64c-0.76,-0.34 -1.37,-0.5 -1.83,-0.5 -0.32,0 -0.57,0.06 -0.76,0.17 -0.19,0.11 -0.28,0.27 -0.28,0.48 0,0.16 0.05,0.29 0.14,0.39 0.09,0.1 0.48,0.33 1.16,0.7 0.68,0.36 1.18,0.71 1.5,1.03 0.32,0.32 0.48,0.74 0.48,1.26 0,0.64 -0.22,1.13 -0.65,1.48 -0.44,0.35 -1.05,0.52 -1.83,0.52 -0.18,0 -0.32,-0.01 -0.41,-0.02 -0.1,-0.01 -0.23,-0.03 -0.39,-0.05 -0.16,-0.02 -0.32,-0.06 -0.47,-0.1 -0.15,-0.05 -0.43,-0.17 -0.83,-0.36l-0.46 -0.21 0.57 -1.24c0.45,0.24 0.82,0.42 1.12,0.53 0.3,0.11 0.6,0.17 0.9,0.17 0.31,0 0.56,-0.06 0.75,-0.19 0.19,-0.13 0.28,-0.3 0.28,-0.51 0,-0.16 -0.04,-0.29 -0.13,-0.4 -0.09,-0.11 -0.25,-0.23 -0.49,-0.36l-1.09 -0.62c-0.63,-0.36 -1.06,-0.68 -1.29,-0.96 -0.23,-0.28 -0.35,-0.62 -0.35,-1 0,-0.36 0.08,-0.67 0.23,-0.9 0.15,-0.24 0.35,-0.44 0.59,-0.61 0.24,-0.17 0.49,-0.29 0.76,-0.36 0.27,-0.07 0.6,-0.11 1,-0.11 0.47,0 0.84,0.04 1.12,0.12 0.27,0.08 0.49,0.15 0.65,0.21 0.16,0.06 0.35,0.14 0.56,0.25l-0.54 1.21zm7.61 5.52c-1.11,0 -2.01,-0.34 -2.71,-1.03 -0.7,-0.68 -1.05,-1.57 -1.05,-2.64 0,-1.09 0.35,-1.97 1.04,-2.65 0.7,-0.67 1.6,-1.01 2.71,-1.01 1.12,0 2.02,0.34 2.71,1.01 0.69,0.67 1.03,1.56 1.03,2.65 0,1.08 -0.35,1.96 -1.05,2.64 -0.7,0.69 -1.6,1.03 -2.7,1.03zm0 -6.16c-0.67,0 -1.23,0.24 -1.66,0.71 -0.44,0.47 -0.66,1.07 -0.66,1.78 0,0.73 0.22,1.33 0.65,1.79 0.44,0.47 0.99,0.7 1.67,0.7 0.66,0 1.21,-0.24 1.65,-0.71 0.44,-0.47 0.66,-1.07 0.66,-1.78 0,-0.71 -0.22,-1.31 -0.66,-1.78 -0.44,-0.47 -0.99,-0.71 -1.65,-0.71zm7.86 6.03l-2.88 0 0 -7.05 2.56 0c0.48,0 0.84,0.03 1.09,0.1 0.25,0.07 0.52,0.23 0.8,0.48 0.29,0.25 0.43,0.63 0.43,1.15 0,0.43 -0.11,0.76 -0.32,1.01 -0.21,0.25 -0.41,0.41 -0.58,0.49 -0.17,0.08 -0.39,0.12 -0.66,0.12 0.54,0 0.96,0.16 1.27,0.49 0.31,0.33 0.47,0.77 0.47,1.33 0,0.61 -0.19,1.08 -0.56,1.4 -0.37,0.32 -0.91,0.48 -1.63,0.48zm-0.59 -5.98l-0.88 0 0 1.81 0.8 0c0.78,0 1.17,-0.3 1.17,-0.91 0,-0.28 -0.1,-0.5 -0.29,-0.66 -0.19,-0.16 -0.46,-0.23 -0.8,-0.23zm0 2.95l-0.88 0 0 1.95 0.88 0c0.22,0 0.39,-0.01 0.49,-0.02 0.11,-0.01 0.27,-0.07 0.48,-0.18 0.21,-0.1 0.32,-0.35 0.32,-0.75 0,-0.32 -0.11,-0.57 -0.33,-0.74 -0.22,-0.17 -0.54,-0.26 -0.96,-0.26zm4.84 4.55c-0.18,0.29 -0.41,0.62 -0.7,0.97l-1.01 -0.67c0.16,-0.26 0.28,-0.45 0.36,-0.58 0.08,-0.13 0.19,-0.35 0.35,-0.68 0.16,-0.33 0.24,-0.85 0.24,-1.56l0 -6.05 1.34 0 0 7.26c-0.16,0.51 -0.35,0.95 -0.58,1.31zm2.47 -1.52l0 -7.05 4.3 0 0 1.15 -2.95 0 0 1.73 2.42 0 0 1.15 -2.42 0 0 1.88 3.09 0 0 1.15 -4.44 0zm8.36 -5.91l0 5.91 -1.35 0 0 -5.91 -2.12 0 0 -1.15 5.59 0 0 1.15 -2.12 0zm3.15 5.91l0 -7.05 1.35 0 0 7.05 -1.35 0zm5.87 0.2l-0.94 0 -2.62 -7.26 1.48 0 1.62 4.76 0.02 0.1 0.02 0.12 0.03 0.13 -0.01 -0.07c0,-0.06 0.01,-0.12 0.03,-0.18l0.04 -0.09 1.54 -4.76 1.41 0 -2.62 7.26zm6.74 -0.06c-1.11,0 -2.01,-0.34 -2.71,-1.03 -0.7,-0.68 -1.05,-1.57 -1.05,-2.64 0,-1.09 0.35,-1.97 1.04,-2.65 0.7,-0.67 1.6,-1.01 2.71,-1.01 1.12,0 2.02,0.34 2.71,1.01 0.69,0.67 1.03,1.56 1.03,2.65 0,1.08 -0.35,1.96 -1.05,2.64 -0.7,0.69 -1.6,1.03 -2.7,1.03zm0 -6.16c-0.67,0 -1.23,0.24 -1.66,0.71 -0.44,0.47 -0.66,1.07 -0.66,1.78 0,0.73 0.22,1.33 0.65,1.79 0.44,0.47 0.99,0.7 1.67,0.7 0.66,0 1.21,-0.24 1.65,-0.71 0.44,-0.47 0.66,-1.07 0.66,-1.78 0,-0.71 -0.22,-1.31 -0.66,-1.78 -0.44,-0.47 -0.99,-0.71 -1.65,-0.71zm8.95 0.64c-0.76,-0.34 -1.37,-0.5 -1.83,-0.5 -0.32,0 -0.57,0.06 -0.76,0.17 -0.19,0.11 -0.28,0.27 -0.28,0.48 0,0.16 0.05,0.29 0.14,0.39 0.09,0.1 0.48,0.33 1.16,0.7 0.68,0.36 1.18,0.71 1.5,1.03 0.32,0.32 0.48,0.74 0.48,1.26 0,0.64 -0.22,1.13 -0.65,1.48 -0.44,0.35 -1.05,0.52 -1.83,0.52 -0.18,0 -0.32,-0.01 -0.41,-0.02 -0.1,-0.01 -0.23,-0.03 -0.39,-0.05 -0.16,-0.02 -0.32,-0.06 -0.47,-0.1 -0.15,-0.05 -0.43,-0.17 -0.83,-0.36l-0.46 -0.21 0.57 -1.24c0.45,0.24 0.82,0.42 1.12,0.53 0.3,0.11 0.6,0.17 0.9,0.17 0.31,0 0.56,-0.06 0.75,-0.19 0.19,-0.13 0.28,-0.3 0.28,-0.51 0,-0.16 -0.04,-0.29 -0.13,-0.4 -0.09,-0.11 -0.25,-0.23 -0.49,-0.36l-1.09 -0.62c-0.63,-0.36 -1.06,-0.68 -1.29,-0.96 -0.23,-0.28 -0.35,-0.62 -0.35,-1 0,-0.36 0.08,-0.67 0.23,-0.9 0.15,-0.24 0.35,-0.44 0.59,-0.61 0.24,-0.17 0.49,-0.29 0.76,-0.36 0.27,-0.07 0.6,-0.11 1,-0.11 0.47,0 0.84,0.04 1.12,0.12 0.27,0.08 0.49,0.15 0.65,0.21 0.16,0.06 0.35,0.14 0.56,0.25l-0.54 1.21zm9.89 4.35c-0.65,0.69 -1.6,1.04 -2.86,1.04l-2.61 0 0 -7.05 2.62 0c0.67,0 1.23,0.08 1.67,0.24 0.44,0.16 0.83,0.41 1.16,0.76 0.33,0.35 0.58,0.74 0.74,1.17 0.16,0.43 0.25,0.87 0.25,1.34 0,0.98 -0.32,1.82 -0.97,2.51zm-1.3 -4.41c-0.38,-0.28 -0.94,-0.42 -1.69,-0.42l-1.07 0 0 4.68 1.07 0c0.8,0 1.42,-0.2 1.85,-0.61 0.44,-0.41 0.65,-0.99 0.65,-1.74 0,-0.41 -0.07,-0.78 -0.22,-1.12 -0.15,-0.34 -0.34,-0.6 -0.59,-0.79zm3.5 5.45l0 -7.05 4.3 0 0 1.15 -2.95 0 0 1.73 2.42 0 0 1.15 -2.42 0 0 1.88 3.09 0 0 1.15 -4.44 0zm5.77 0l0 -7.05 1.35 0 0 5.91 2.89 0 0 1.15 -4.24 0zm11.94 0l-0.56 -1.74 -2.37 0 -0.58 1.74 -1.41 0 2.56 -7.05 1.21 0 2.56 7.05 -1.41 0zm-1.74 -5.44l-0.81 2.55 1.64 0 -0.82 -2.55zm8.64 -2.09c-0.28,0.11 -0.53,0.17 -0.75,0.17 -0.26,0 -0.52,-0.07 -0.78,-0.21 -0.26,-0.14 -0.42,-0.22 -0.49,-0.25 -0.07,-0.02 -0.15,-0.03 -0.25,-0.03 -0.11,0 -0.21,0.01 -0.29,0.04 -0.08,0.03 -0.21,0.09 -0.37,0.2l-0.16 0.1 -0.35 -0.61c0.04,-0.03 0.14,-0.09 0.28,-0.17 0.14,-0.09 0.3,-0.17 0.47,-0.25 0.17,-0.08 0.36,-0.12 0.56,-0.12l0.12 0c0.14,0.01 0.26,0.05 0.37,0.11 0.11,0.06 0.27,0.14 0.47,0.25 0.2,0.11 0.39,0.17 0.55,0.17 0.18,0 0.32,-0.03 0.42,-0.09 0.1,-0.06 0.26,-0.16 0.47,-0.31l0.35 0.57c-0.13,0.12 -0.23,0.21 -0.31,0.26 -0.08,0.05 -0.19,0.11 -0.32,0.17zm0.2 7.59l-3.03 -4.57 -0.15 -0.27 -0.09 -0.15 -0.09 -0.24 0 5.17 -1.28 0 0 -7.05 1.55 0 2.96 4.64 0.07 0.15 0.06 0.14 0.06 0.18 0.06 0.12 0 -5.23 1.28 0 0 7.12 -1.42 0zm6.54 0.07c-1.11,0 -2.01,-0.34 -2.71,-1.03 -0.7,-0.68 -1.05,-1.57 -1.05,-2.64 0,-1.09 0.35,-1.97 1.04,-2.65 0.7,-0.67 1.6,-1.01 2.71,-1.01 1.12,0 2.02,0.34 2.71,1.01 0.69,0.67 1.03,1.56 1.03,2.65 0,1.08 -0.35,1.96 -1.05,2.64 -0.7,0.69 -1.6,1.03 -2.7,1.03zm0 -6.16c-0.67,0 -1.23,0.24 -1.66,0.71 -0.44,0.47 -0.66,1.07 -0.66,1.78 0,0.73 0.22,1.33 0.65,1.79 0.44,0.47 0.99,0.7 1.67,0.7 0.66,0 1.21,-0.24 1.65,-0.71 0.44,-0.47 0.66,-1.07 0.66,-1.78 0,-0.71 -0.22,-1.31 -0.66,-1.78 -0.44,-0.47 -0.99,-0.71 -1.65,-0.71z"/>
  <path class="fil1" d="M17.06 22.98c-3.86,-2.19 -6.5,-4.15 -7.92,-5.88 -1.42,-1.73 -2.14,-3.78 -2.14,-6.15 0,-2.23 0.47,-4.09 1.41,-5.55 0.94,-1.47 2.15,-2.72 3.62,-3.75 0.96,-0.68 1.97,-1.23 3.01,-1.65l-9.63 0c-2.98,0 -5.41,2.43 -5.41,5.41l0 31.72c0,2.47 1.68,4.57 3.95,5.21l1.44 -3.17 -0.03 -0.01 3.48 -7.63c2.76,1.49 5.05,2.57 6.87,3.25 1.82,0.68 3.67,1.02 5.55,1.02 1.93,0 3.46,-0.39 4.6,-1.18 1.14,-0.79 1.71,-1.84 1.71,-3.16 0,-0.96 -0.26,-1.77 -0.79,-2.43 -0.53,-0.66 -1.53,-1.4 -3.02,-2.23l-6.7 -3.81zm5.59 -16.24c-1.97,0 -3.53,0.35 -4.67,1.05 -1.14,0.7 -1.71,1.69 -1.71,2.96 0,0.96 0.28,1.75 0.85,2.37 0.57,0.61 2.94,2.04 7.1,4.27 4.16,2.23 7.23,4.34 9.2,6.31 1.97,1.97 2.96,4.56 2.96,7.76 0,3.9 -1.34,6.92 -4.01,9.07 -1.03,0.83 -2.23,1.5 -3.58,2.01l8.33 0c2.98,0 5.41,-2.43 5.41,-5.41l0 -31.72c0,-2.61 -1.87,-4.8 -4.33,-5.3l-4.32 9.72c-4.65,-2.06 -8.39,-3.09 -11.24,-3.09z"/>
 </g>
</svg>
