<?xml version="1.0" encoding="UTF-8"?>
<!DOCTYPE svg PUBLIC "-//W3C//DTD SVG 1.1//EN" "http://www.w3.org/Graphics/SVG/1.1/DTD/svg11.dtd">
<!-- Creator: CorelDRAW 2020 (64-Bit) -->
<svg xmlns="http://www.w3.org/2000/svg" xml:space="preserve" width="0.613016in" height="0.613016in" version="1.1" style="shape-rendering:geometricPrecision; text-rendering:geometricPrecision; image-rendering:optimizeQuality; fill-rule:evenodd; clip-rule:evenodd"
viewBox="0 0 11.84 11.84"
 xmlns:xlink="http://www.w3.org/1999/xlink"
 xmlns:xodm="http://www.corel.com/coreldraw/odm/2003">
 <defs>
  <style type="text/css">
   <![CDATA[
    .fil0 {fill:white}
   ]]>
  </style>
 </defs>
 <g id="Layer_x0020_1">
  <metadata id="CorelCorpID_0Corel-Layer"/>
  <path class="fil0" d="M4.75 6.39c-1.07,-0.61 -1.81,-1.16 -2.2,-1.64 -0.4,-0.48 -0.59,-1.05 -0.59,-1.71 0,-0.62 0.13,-1.14 0.39,-1.55 0.26,-0.41 0.6,-0.76 1.01,-1.04 0.27,-0.19 0.55,-0.34 0.84,-0.46l-2.68 0c-0.83,0 -1.51,0.68 -1.51,1.51l0 8.83c0,0.69 0.47,1.27 1.1,1.45l0.4 -0.88 -0.01 -0 0.97 -2.12c0.77,0.41 1.41,0.72 1.91,0.91 0.51,0.19 1.02,0.28 1.55,0.28 0.54,0 0.96,-0.11 1.28,-0.33 0.32,-0.22 0.48,-0.51 0.48,-0.88 0,-0.27 -0.07,-0.49 -0.22,-0.68 -0.15,-0.18 -0.43,-0.39 -0.84,-0.62l-1.87 -1.06zm1.55 -4.52c-0.55,0 -0.98,0.1 -1.3,0.29 -0.32,0.2 -0.48,0.47 -0.48,0.82 0,0.27 0.08,0.49 0.24,0.66 0.16,0.17 0.82,0.57 1.98,1.19 1.16,0.62 2.01,1.21 2.56,1.76 0.55,0.55 0.82,1.27 0.82,2.16 0,1.09 -0.37,1.93 -1.12,2.52 -0.29,0.23 -0.62,0.42 -1,0.56l2.32 0c0.83,0 1.51,-0.68 1.51,-1.51l0 -8.83c0,-0.73 -0.52,-1.33 -1.21,-1.48l-1.2 2.71c-1.29,-0.57 -2.34,-0.86 -3.13,-0.86z"/>
 </g>
</svg>
