<?xml version="1.0" encoding="UTF-8"?>
<!DOCTYPE svg PUBLIC "-//W3C//DTD SVG 1.1//EN" "http://www.w3.org/Graphics/SVG/1.1/DTD/svg11.dtd">
<!-- Creator: CorelDRAW 2020 (64-Bit) -->
<svg xmlns="http://www.w3.org/2000/svg" xml:space="preserve" width="3.1974in" height="0.613016in" version="1.1" style="shape-rendering:geometricPrecision; text-rendering:geometricPrecision; image-rendering:optimizeQuality; fill-rule:evenodd; clip-rule:evenodd"
viewBox="0 0 322.02 61.74"
 xmlns:xlink="http://www.w3.org/1999/xlink"
 xmlns:xodm="http://www.corel.com/coreldraw/odm/2003">
 <defs>
  <style type="text/css">
   <![CDATA[
    .fil1 {fill:#9575CD}
    .fil0 {fill:#B3B3B3;fill-rule:nonzero}
   ]]>
  </style>
 </defs>
 <g id="Layer_x0020_1">
  <metadata id="CorelCorpID_0Corel-Layer"/>
  <path class="fil0" d="M84.1 9.58c-1.1,-0.49 -1.98,-0.73 -2.65,-0.73 -0.47,0 -0.83,0.08 -1.1,0.25 -0.27,0.17 -0.4,0.4 -0.4,0.7 0,0.23 0.07,0.41 0.2,0.56 0.13,0.15 0.69,0.48 1.68,1.01 0.98,0.53 1.71,1.02 2.17,1.49 0.47,0.47 0.7,1.08 0.7,1.83 0,0.92 -0.32,1.64 -0.95,2.14 -0.63,0.51 -1.52,0.76 -2.65,0.76 -0.26,0 -0.46,-0.01 -0.6,-0.03 -0.14,-0.02 -0.33,-0.05 -0.57,-0.08 -0.24,-0.03 -0.47,-0.08 -0.68,-0.15 -0.22,-0.07 -0.62,-0.24 -1.21,-0.52l-0.67 -0.31 0.82 -1.8c0.65,0.35 1.19,0.61 1.62,0.77 0.43,0.16 0.87,0.24 1.31,0.24 0.46,0 0.82,-0.09 1.09,-0.28 0.27,-0.19 0.4,-0.43 0.4,-0.75 0,-0.23 -0.06,-0.42 -0.19,-0.57 -0.12,-0.16 -0.36,-0.33 -0.71,-0.53l-1.58 -0.9c-0.91,-0.52 -1.53,-0.98 -1.87,-1.39 -0.34,-0.41 -0.5,-0.89 -0.5,-1.45 0,-0.53 0.11,-0.97 0.33,-1.31 0.22,-0.35 0.51,-0.64 0.85,-0.88 0.35,-0.24 0.71,-0.42 1.1,-0.52 0.39,-0.1 0.87,-0.16 1.45,-0.16 0.68,0 1.22,0.06 1.62,0.18 0.4,0.12 0.71,0.22 0.95,0.31 0.23,0.09 0.5,0.21 0.82,0.36l-0.78 1.75zm2.58 7.81l0 -10.23 1.96 0 0 10.23 -1.96 0zm10.37 -7.81c-1.1,-0.49 -1.98,-0.73 -2.65,-0.73 -0.47,0 -0.83,0.08 -1.1,0.25 -0.27,0.17 -0.4,0.4 -0.4,0.7 0,0.23 0.07,0.41 0.2,0.56 0.13,0.15 0.69,0.48 1.68,1.01 0.98,0.53 1.71,1.02 2.17,1.49 0.47,0.47 0.7,1.08 0.7,1.83 0,0.92 -0.32,1.64 -0.95,2.14 -0.63,0.51 -1.52,0.76 -2.65,0.76 -0.26,0 -0.46,-0.01 -0.6,-0.03 -0.14,-0.02 -0.33,-0.05 -0.57,-0.08 -0.24,-0.03 -0.47,-0.08 -0.68,-0.15 -0.22,-0.07 -0.62,-0.24 -1.21,-0.52l-0.67 -0.31 0.82 -1.8c0.65,0.35 1.19,0.61 1.62,0.77 0.43,0.16 0.87,0.24 1.31,0.24 0.46,0 0.82,-0.09 1.09,-0.28 0.27,-0.19 0.4,-0.43 0.4,-0.75 0,-0.23 -0.06,-0.42 -0.19,-0.57 -0.12,-0.16 -0.36,-0.33 -0.71,-0.53l-1.58 -0.9c-0.91,-0.52 -1.53,-0.98 -1.87,-1.39 -0.34,-0.41 -0.5,-0.89 -0.5,-1.45 0,-0.53 0.11,-0.97 0.33,-1.31 0.22,-0.35 0.51,-0.64 0.85,-0.88 0.35,-0.24 0.71,-0.42 1.1,-0.52 0.39,-0.1 0.87,-0.16 1.45,-0.16 0.68,0 1.22,0.06 1.62,0.18 0.4,0.12 0.71,0.22 0.95,0.31 0.23,0.09 0.5,0.21 0.82,0.36l-0.78 1.75zm6.38 -0.76l0 8.57 -1.96 0 0 -8.57 -3.07 0 0 -1.66 8.1 0 0 1.66 -3.07 0zm4.61 8.57l0 -10.23 6.24 0 0 1.66 -4.28 0 0 2.52 3.51 0 0 1.66 -3.51 0 0 2.73 4.49 0 0 1.66 -6.44 0zm17.25 0l0 -7.5c-0.05,0.35 -0.11,0.62 -0.18,0.82 -0.07,0.2 -0.14,0.41 -0.21,0.62l-2.36 6.05 -1.74 0.01 -2.14 -5.95c-0.09,-0.29 -0.16,-0.53 -0.21,-0.74 -0.05,-0.21 -0.11,-0.5 -0.18,-0.88l0 7.56 -1.77 0 0 -10.23 2.34 0 2.73 7.3c0.1,0.24 0.17,0.5 0.19,0.79 0.03,-0.23 0.06,-0.39 0.08,-0.48 0.02,-0.09 0.06,-0.2 0.11,-0.31l2.84 -7.3 2.34 0 0 10.23 -1.86 0zm10.51 0l-0.81 -2.53 -3.43 0 -0.84 2.53 -2.05 0 3.71 -10.23 1.75 0 3.71 10.23 -2.05 0zm-2.53 -7.89l-1.18 3.7 2.37 0 -1.2 -3.7z"/>
  <path class="fil0" d="M86.25 34.76c-0.94,1 -2.32,1.5 -4.14,1.5l-3.79 0 0 -10.23 3.8 0c0.97,0 1.78,0.11 2.42,0.34 0.64,0.23 1.2,0.6 1.68,1.11 0.48,0.51 0.84,1.08 1.08,1.7 0.24,0.62 0.36,1.27 0.36,1.94 0,1.43 -0.47,2.64 -1.41,3.64zm-1.88 -6.4c-0.55,-0.4 -1.37,-0.6 -2.45,-0.6l-1.55 0 0 6.78 1.55 0c1.16,0 2.05,-0.29 2.69,-0.88 0.63,-0.59 0.95,-1.43 0.95,-2.53 0,-0.59 -0.11,-1.13 -0.32,-1.63 -0.21,-0.49 -0.5,-0.88 -0.86,-1.15zm5.08 7.9l0 -10.23 6.24 0 0 1.66 -4.28 0 0 2.52 3.51 0 0 1.66 -3.51 0 0 2.73 4.49 0 0 1.66 -6.44 0zm86.36 -4.34c-0.69,0.59 -1.7,0.88 -3.03,0.88 -0.29,0 -0.61,-0.02 -0.95,-0.05l0 3.51 -1.96 0 0 -10.23 3.51 0c0.67,0 1.21,0.06 1.62,0.19 0.41,0.12 0.84,0.41 1.29,0.85 0.45,0.45 0.68,1.14 0.68,2.09 0,1.18 -0.39,2.1 -1.16,2.76zm-2.61 -4.23l-1.37 0 0 3.4 0.25 0 0.25 0 0.43 0c0.76,0 1.31,-0.14 1.66,-0.43 0.35,-0.28 0.53,-0.74 0.53,-1.36 0,-1.07 -0.58,-1.61 -1.75,-1.61zm11.07 8.57l-0.81 -2.53 -3.43 0 -0.84 2.53 -2.05 0 3.71 -10.23 1.75 0 3.71 10.23 -2.05 0zm-2.53 -7.89l-1.18 3.7 2.37 0 -1.2 -3.7zm11.29 7.89l-2.35 -4.09 -0.97 -0 0 4.1 -1.96 0 0 -10.23 3.42 0c0.77,0 1.34,0.05 1.73,0.16 0.39,0.1 0.8,0.36 1.23,0.77 0.43,0.41 0.65,1.09 0.65,2.05 0,0.78 -0.14,1.37 -0.43,1.74 -0.28,0.38 -0.54,0.63 -0.75,0.76 -0.22,0.13 -0.54,0.25 -0.98,0.36l2.55 4.39 -2.14 -0zm-2.05 -8.57l-1.27 0 0 2.81 1.27 0c1.19,0 1.79,-0.48 1.79,-1.45 0,-0.48 -0.14,-0.83 -0.41,-1.04 -0.27,-0.21 -0.73,-0.32 -1.37,-0.32zm11.6 8.57l-0.81 -2.53 -3.43 0 -0.84 2.53 -2.05 0 3.71 -10.23 1.75 0 3.71 10.23 -2.05 0zm-2.53 -7.89l-1.18 3.7 2.37 0 -1.2 -3.7zm9.89 7.89l0 -10.23 1.96 0 0 8.57 4.19 0 0 1.66 -6.15 0zm13.44 0l-0.81 -2.53 -3.43 0 -0.84 2.53 -2.05 0 3.71 -10.23 1.75 0 3.71 10.23 -2.05 0zm-2.53 -7.89l-1.18 3.7 2.37 0 -1.2 -3.7zm11.67 0.08c-1.1,-0.49 -1.98,-0.73 -2.65,-0.73 -0.47,0 -0.83,0.08 -1.1,0.25 -0.27,0.17 -0.4,0.4 -0.4,0.7 0,0.23 0.07,0.41 0.2,0.56 0.13,0.15 0.69,0.48 1.68,1.01 0.98,0.53 1.71,1.02 2.17,1.49 0.47,0.47 0.7,1.08 0.7,1.83 0,0.92 -0.32,1.64 -0.95,2.14 -0.63,0.51 -1.52,0.76 -2.65,0.76 -0.26,0 -0.46,-0.01 -0.6,-0.03 -0.14,-0.02 -0.33,-0.05 -0.57,-0.08 -0.24,-0.03 -0.47,-0.08 -0.68,-0.15 -0.22,-0.07 -0.62,-0.24 -1.21,-0.52l-0.67 -0.31 0.82 -1.8c0.65,0.35 1.19,0.61 1.62,0.77 0.43,0.16 0.87,0.24 1.31,0.24 0.46,0 0.82,-0.09 1.09,-0.28 0.27,-0.19 0.4,-0.43 0.4,-0.75 0,-0.23 -0.06,-0.42 -0.19,-0.57 -0.12,-0.16 -0.36,-0.33 -0.71,-0.53l-1.58 -0.9c-0.91,-0.52 -1.53,-0.98 -1.87,-1.39 -0.34,-0.41 -0.5,-0.89 -0.5,-1.45 0,-0.53 0.11,-0.97 0.33,-1.31 0.22,-0.35 0.51,-0.64 0.85,-0.88 0.35,-0.24 0.71,-0.42 1.1,-0.52 0.39,-0.1 0.87,-0.16 1.45,-0.16 0.68,0 1.22,0.06 1.62,0.18 0.4,0.12 0.71,0.22 0.95,0.31 0.23,0.09 0.5,0.21 0.82,0.36l-0.78 1.75zm-123.4 7.67c-0.52,0.12 -0.98,0.21 -1.37,0.26 -0.4,0.05 -0.8,0.08 -1.2,0.08 -1.71,0 -3.09,-0.49 -4.16,-1.47 -1.07,-0.98 -1.6,-2.27 -1.6,-3.87 0,-0.77 0.14,-1.48 0.43,-2.15 0.29,-0.67 0.71,-1.25 1.24,-1.74 0.54,-0.49 1.12,-0.85 1.75,-1.06 0.63,-0.22 1.39,-0.33 2.28,-0.33 0.78,0 1.39,0.05 1.84,0.16 0.45,0.11 0.77,0.2 0.96,0.26 0.19,0.07 0.48,0.18 0.86,0.35l-0.48 1.63 -0.84 -0.29c-0.74,-0.25 -1.44,-0.37 -2.11,-0.37 -1.15,0 -2.09,0.32 -2.81,0.96 -0.72,0.64 -1.09,1.47 -1.09,2.48 0,1.05 0.39,1.92 1.16,2.63 0.77,0.71 1.73,1.06 2.88,1.06 0.37,0 0.82,-0.07 1.34,-0.22l0 -2.83 1.96 0 0 4.19 -1.04 0.25zm3.57 0.14l0 -10.23 6.24 0 0 1.66 -4.28 0 0 2.52 3.51 0 0 1.66 -3.51 0 0 2.73 4.49 0 0 1.66 -6.44 0zm14.03 -7.81c-1.1,-0.49 -1.98,-0.73 -2.65,-0.73 -0.47,0 -0.83,0.08 -1.1,0.25 -0.27,0.17 -0.4,0.4 -0.4,0.7 0,0.23 0.07,0.41 0.2,0.56 0.13,0.15 0.69,0.48 1.68,1.01 0.98,0.53 1.71,1.02 2.17,1.49 0.47,0.47 0.7,1.08 0.7,1.83 0,0.92 -0.32,1.64 -0.95,2.14 -0.63,0.51 -1.52,0.76 -2.65,0.76 -0.26,0 -0.46,-0.01 -0.6,-0.03 -0.14,-0.02 -0.33,-0.05 -0.57,-0.08 -0.24,-0.03 -0.47,-0.08 -0.68,-0.15 -0.22,-0.07 -0.62,-0.24 -1.21,-0.52l-0.67 -0.31 0.82 -1.8c0.65,0.35 1.19,0.61 1.62,0.77 0.43,0.16 0.87,0.24 1.31,0.24 0.46,0 0.82,-0.09 1.09,-0.28 0.27,-0.19 0.4,-0.43 0.4,-0.75 0,-0.23 -0.06,-0.42 -0.19,-0.57 -0.12,-0.16 -0.36,-0.33 -0.71,-0.53l-1.58 -0.9c-0.91,-0.52 -1.53,-0.98 -1.87,-1.39 -0.34,-0.41 -0.5,-0.89 -0.5,-1.45 0,-0.53 0.11,-0.97 0.33,-1.31 0.22,-0.35 0.51,-0.64 0.85,-0.88 0.35,-0.24 0.71,-0.42 1.1,-0.52 0.39,-0.1 0.87,-0.16 1.45,-0.16 0.68,0 1.22,0.06 1.62,0.18 0.4,0.12 0.71,0.22 0.95,0.31 0.23,0.09 0.5,0.21 0.82,0.36l-0.78 1.75zm6.38 -0.76l0 8.57 -1.96 0 0 -8.57 -3.07 0 0 -1.66 8.1 0 0 1.66 -3.07 0zm4.56 8.57l0 -10.23 1.96 0 0 10.23 -1.96 0zm9.8 -10.71l-1.44 0 1.47 -1.83 1.72 -0 -1.75 1.83zm-0.56 10.91c-1.6,0 -2.91,-0.5 -3.93,-1.49 -1.01,-0.99 -1.52,-2.27 -1.52,-3.83 0,-1.58 0.5,-2.86 1.51,-3.84 1.01,-0.98 2.32,-1.47 3.94,-1.47 1.62,0 2.94,0.49 3.94,1.47 1,0.98 1.5,2.26 1.5,3.84 0,1.56 -0.51,2.84 -1.52,3.83 -1.01,0.99 -2.32,1.49 -3.91,1.49zm0 -8.94c-0.97,0 -1.78,0.34 -2.41,1.03 -0.64,0.69 -0.95,1.55 -0.95,2.58 0,1.06 0.32,1.92 0.95,2.6 0.63,0.68 1.44,1.02 2.42,1.02 0.96,0 1.76,-0.34 2.4,-1.03 0.64,-0.69 0.95,-1.55 0.95,-2.58 0,-1.03 -0.32,-1.9 -0.95,-2.58 -0.64,-0.69 -1.44,-1.03 -2.4,-1.03zm14.13 8.84l-4.39 -6.63 -0.21 -0.4 -0.12 -0.21 -0.14 -0.35 0 7.5 -1.86 0 0 -10.23 2.25 0 4.29 6.73 0.11 0.22 0.09 0.2 0.09 0.26 0.09 0.18 0 -7.59 1.86 0 0 10.32 -2.06 0.01zm77.98 -0.1l0 -10.23 6.24 0 0 1.66 -4.28 0 0 2.52 3.51 0 0 1.66 -3.51 0 0 2.73 4.49 0 0 1.66 -6.44 0zm12.17 0.29l-1.37 0 -3.8 -10.53 2.14 0 2.34 6.91 0.03 0.14 0.03 0.17 0.05 0.19 -0.02 -0.11c0,-0.09 0.02,-0.18 0.05,-0.26l0.06 -0.12 2.24 -6.91 2.05 0 -3.8 10.53zm5.2 -0.29l0 -10.23 1.96 0 0 10.23 -1.96 0zm12.54 -1.5c-0.94,1 -2.32,1.5 -4.14,1.5l-3.79 0 0 -10.23 3.8 0c0.97,0 1.78,0.11 2.42,0.34 0.64,0.23 1.2,0.6 1.68,1.11 0.48,0.51 0.84,1.08 1.08,1.7 0.24,0.62 0.36,1.27 0.36,1.94 0,1.43 -0.47,2.64 -1.41,3.64zm-1.88 -6.4c-0.55,-0.4 -1.37,-0.6 -2.45,-0.6l-1.55 0 0 6.78 1.55 0c1.16,0 2.05,-0.29 2.69,-0.88 0.63,-0.59 0.95,-1.43 0.95,-2.53 0,-0.59 -0.11,-1.13 -0.32,-1.63 -0.21,-0.49 -0.5,-0.88 -0.86,-1.15zm5.08 7.9l0 -10.23 6.24 0 0 1.66 -4.28 0 0 2.52 3.51 0 0 1.66 -3.51 0 0 2.73 4.49 0 0 1.66 -6.44 0zm15.19 0.1l-4.39 -6.63 -0.21 -0.4 -0.12 -0.21 -0.14 -0.35 0 7.5 -1.86 0 0 -10.23 2.25 0 4.29 6.73 0.11 0.22 0.09 0.2 0.09 0.26 0.09 0.18 0 -7.59 1.86 0 0 10.32 -2.06 0.01zm11.85 -8c-0.66,-0.48 -1.45,-0.71 -2.36,-0.71 -0.99,0 -1.81,0.31 -2.44,0.93 -0.63,0.62 -0.95,1.42 -0.95,2.41 0,1.11 0.34,1.99 1.01,2.65 0.67,0.66 1.57,0.99 2.69,0.99 0.67,0 1.42,-0.16 2.25,-0.48l0.36 1.65c-0.26,0.11 -0.5,0.21 -0.74,0.29 -0.23,0.08 -0.46,0.15 -0.67,0.2 -0.21,0.05 -0.46,0.09 -0.74,0.12 -0.28,0.03 -0.57,0.05 -0.88,0.05 -0.8,0 -1.49,-0.1 -2.09,-0.31 -0.6,-0.21 -1.15,-0.54 -1.67,-1 -0.52,-0.46 -0.93,-1.05 -1.23,-1.77 -0.3,-0.72 -0.45,-1.48 -0.45,-2.29 0,-1.53 0.5,-2.79 1.51,-3.78 1,-0.99 2.31,-1.48 3.93,-1.48 1.27,0 2.34,0.33 3.21,0.98l-0.75 1.55zm2.45 7.9l0 -10.23 1.96 0 0 10.23 -1.96 0zm10.46 0l-0.81 -2.53 -3.43 0 -0.84 2.53 -2.05 0 3.71 -10.23 1.75 0 3.71 10.23 -2.05 0zm-2.53 -7.89l-1.18 3.7 2.37 0 -1.2 -3.7zm11.67 0.08c-1.1,-0.49 -1.98,-0.73 -2.65,-0.73 -0.47,0 -0.83,0.08 -1.1,0.25 -0.27,0.17 -0.4,0.4 -0.4,0.7 0,0.23 0.07,0.41 0.2,0.56 0.13,0.15 0.69,0.48 1.68,1.01 0.98,0.53 1.71,1.02 2.17,1.49 0.47,0.47 0.7,1.08 0.7,1.83 0,0.92 -0.32,1.64 -0.95,2.14 -0.63,0.51 -1.52,0.76 -2.65,0.76 -0.26,0 -0.46,-0.01 -0.6,-0.03 -0.14,-0.02 -0.33,-0.05 -0.57,-0.08 -0.24,-0.03 -0.47,-0.08 -0.68,-0.15 -0.22,-0.07 -0.62,-0.24 -1.21,-0.52l-0.67 -0.31 0.82 -1.8c0.65,0.35 1.19,0.61 1.62,0.77 0.43,0.16 0.87,0.24 1.31,0.24 0.46,0 0.82,-0.09 1.09,-0.28 0.27,-0.19 0.4,-0.43 0.4,-0.75 0,-0.23 -0.06,-0.42 -0.19,-0.57 -0.12,-0.16 -0.36,-0.33 -0.71,-0.53l-1.58 -0.9c-0.91,-0.52 -1.53,-0.98 -1.87,-1.39 -0.34,-0.41 -0.5,-0.89 -0.5,-1.45 0,-0.53 0.11,-0.97 0.33,-1.31 0.22,-0.35 0.51,-0.64 0.85,-0.88 0.35,-0.24 0.71,-0.42 1.1,-0.52 0.39,-0.1 0.87,-0.16 1.45,-0.16 0.68,0 1.22,0.06 1.62,0.18 0.4,0.12 0.71,0.22 0.95,0.31 0.23,0.09 0.5,0.21 0.82,0.36l-0.78 1.75z"/>
  <path class="fil0" d="M86.28 53.33c-0.94,1 -2.33,1.5 -4.15,1.5l-3.79 0 0 -10.24 3.81 0c0.97,0 1.78,0.11 2.42,0.34 0.64,0.23 1.2,0.6 1.69,1.11 0.48,0.51 0.84,1.08 1.08,1.7 0.24,0.62 0.36,1.27 0.36,1.94 0,1.43 -0.47,2.64 -1.41,3.65zm-1.88 -6.4c-0.55,-0.4 -1.37,-0.6 -2.45,-0.6l-1.55 0 0 6.79 1.55 0c1.16,0 2.06,-0.29 2.69,-0.88 0.63,-0.59 0.95,-1.43 0.95,-2.53 0,-0.59 -0.11,-1.13 -0.32,-1.63 -0.21,-0.49 -0.5,-0.88 -0.86,-1.15zm5.08 7.91l0 -10.24 6.24 0 0 1.66 -4.29 0 0 2.52 3.51 0 0 1.66 -3.51 0 0 2.73 4.49 0 0 1.66 -6.45 0zm12.26 0l0 -10.24 1.96 0 0 8.57 4.19 0 0 1.66 -6.15 0zm12.22 0.2c-1.61,0 -2.92,-0.5 -3.93,-1.49 -1.02,-0.99 -1.52,-2.27 -1.52,-3.84 0,-1.58 0.51,-2.87 1.51,-3.84 1.01,-0.98 2.32,-1.47 3.94,-1.47 1.63,0 2.94,0.49 3.94,1.47 1,0.98 1.5,2.26 1.5,3.84 0,1.56 -0.51,2.84 -1.52,3.84 -1.02,0.99 -2.32,1.49 -3.91,1.49zm0 -8.95c-0.97,0 -1.78,0.34 -2.42,1.03 -0.64,0.69 -0.96,1.55 -0.96,2.59 0,1.06 0.32,1.92 0.95,2.6 0.63,0.68 1.44,1.02 2.42,1.02 0.96,0 1.76,-0.34 2.4,-1.03 0.64,-0.69 0.96,-1.55 0.96,-2.59 0,-1.04 -0.32,-1.9 -0.96,-2.59 -0.64,-0.69 -1.44,-1.03 -2.4,-1.03zm12.99 0.93c-1.1,-0.49 -1.98,-0.73 -2.66,-0.73 -0.47,0 -0.83,0.08 -1.1,0.25 -0.27,0.17 -0.4,0.4 -0.4,0.7 0,0.23 0.07,0.41 0.2,0.56 0.13,0.15 0.69,0.48 1.68,1.01 0.98,0.53 1.71,1.02 2.17,1.49 0.47,0.47 0.7,1.08 0.7,1.83 0,0.92 -0.32,1.64 -0.95,2.14 -0.63,0.51 -1.52,0.76 -2.66,0.76 -0.26,0 -0.46,-0.01 -0.6,-0.03 -0.14,-0.02 -0.33,-0.05 -0.57,-0.08 -0.24,-0.03 -0.47,-0.08 -0.68,-0.15 -0.22,-0.07 -0.62,-0.24 -1.21,-0.52l-0.67 -0.31 0.82 -1.8c0.65,0.35 1.19,0.61 1.62,0.77 0.43,0.16 0.87,0.24 1.31,0.24 0.46,0 0.82,-0.09 1.09,-0.28 0.27,-0.19 0.4,-0.43 0.4,-0.75 0,-0.23 -0.06,-0.42 -0.19,-0.57 -0.12,-0.16 -0.36,-0.33 -0.71,-0.53l-1.58 -0.9c-0.91,-0.52 -1.54,-0.98 -1.87,-1.39 -0.34,-0.41 -0.5,-0.89 -0.5,-1.45 0,-0.53 0.11,-0.97 0.33,-1.31 0.22,-0.35 0.51,-0.64 0.85,-0.89 0.35,-0.24 0.71,-0.42 1.1,-0.52 0.39,-0.1 0.87,-0.16 1.45,-0.16 0.68,0 1.22,0.06 1.62,0.18 0.4,0.12 0.71,0.22 0.95,0.31 0.23,0.09 0.5,0.21 0.82,0.37l-0.78 1.75zm11.04 8.02c-1.61,0 -2.92,-0.5 -3.93,-1.49 -1.02,-0.99 -1.52,-2.27 -1.52,-3.84 0,-1.58 0.51,-2.87 1.51,-3.84 1.01,-0.98 2.32,-1.47 3.94,-1.47 1.63,0 2.94,0.49 3.94,1.47 1,0.98 1.5,2.26 1.5,3.84 0,1.56 -0.51,2.84 -1.52,3.84 -1.02,0.99 -2.32,1.49 -3.91,1.49zm0 -8.95c-0.97,0 -1.78,0.34 -2.42,1.03 -0.64,0.69 -0.96,1.55 -0.96,2.59 0,1.06 0.32,1.92 0.95,2.6 0.63,0.68 1.44,1.02 2.42,1.02 0.96,0 1.76,-0.34 2.4,-1.03 0.64,-0.69 0.96,-1.55 0.96,-2.59 0,-1.04 -0.32,-1.9 -0.96,-2.59 -0.64,-0.69 -1.44,-1.03 -2.4,-1.03zm11.4 8.75l-4.18 0 0 -10.24 3.71 0c0.69,0 1.22,0.05 1.58,0.15 0.36,0.1 0.75,0.33 1.16,0.7 0.41,0.37 0.62,0.92 0.62,1.66 0,0.62 -0.16,1.11 -0.47,1.46 -0.31,0.36 -0.59,0.59 -0.85,0.71 -0.25,0.12 -0.57,0.18 -0.96,0.18 0.78,0 1.39,0.24 1.85,0.71 0.46,0.48 0.68,1.12 0.68,1.93 0,0.89 -0.27,1.57 -0.81,2.03 -0.54,0.47 -1.33,0.7 -2.36,0.7zm-0.85 -8.68l-1.27 0 0 2.62 1.16 0c1.13,0 1.69,-0.44 1.69,-1.33 0,-0.41 -0.14,-0.73 -0.42,-0.96 -0.28,-0.23 -0.67,-0.34 -1.17,-0.34zm0 4.29l-1.27 0 0 2.83 1.27 0c0.32,0 0.56,-0.01 0.71,-0.03 0.16,-0.02 0.39,-0.11 0.7,-0.26 0.31,-0.15 0.47,-0.52 0.47,-1.09 0,-0.47 -0.16,-0.82 -0.48,-1.07 -0.32,-0.25 -0.79,-0.37 -1.4,-0.37zm7.02 6.6c-0.26,0.42 -0.6,0.9 -1.01,1.41l-1.46 -0.98c0.24,-0.37 0.41,-0.65 0.52,-0.84 0.11,-0.18 0.28,-0.52 0.51,-0.99 0.23,-0.48 0.34,-1.23 0.34,-2.27l0 -8.78 1.94 0 0 10.53c-0.23,0.74 -0.51,1.37 -0.84,1.91zm3.59 -2.2l0 -10.24 6.24 0 0 1.66 -4.29 0 0 2.52 3.51 0 0 1.66 -3.51 0 0 2.73 4.49 0 0 1.66 -6.45 0zm12.13 -8.57l0 8.57 -1.96 0 0 -8.57 -3.08 0 0 -1.66 8.11 0 0 1.66 -3.08 0zm4.57 8.57l0 -10.24 1.96 0 0 10.24 -1.96 0zm8.51 0.29l-1.37 0 -3.81 -10.53 2.14 0 2.35 6.91 0.03 0.14 0.03 0.17 0.05 0.19 -0.02 -0.11c0,-0.09 0.02,-0.18 0.05,-0.26l0.06 -0.12 2.24 -6.91 2.05 0 -3.81 10.53zm9.79 -0.09c-1.61,0 -2.92,-0.5 -3.93,-1.49 -1.02,-0.99 -1.52,-2.27 -1.52,-3.84 0,-1.58 0.51,-2.87 1.51,-3.84 1.01,-0.98 2.32,-1.47 3.94,-1.47 1.63,0 2.94,0.49 3.94,1.47 1,0.98 1.5,2.26 1.5,3.84 0,1.56 -0.51,2.84 -1.52,3.84 -1.02,0.99 -2.32,1.49 -3.91,1.49zm0 -8.95c-0.97,0 -1.78,0.34 -2.42,1.03 -0.64,0.69 -0.96,1.55 -0.96,2.59 0,1.06 0.32,1.92 0.95,2.6 0.63,0.68 1.44,1.02 2.42,1.02 0.96,0 1.76,-0.34 2.4,-1.03 0.64,-0.69 0.96,-1.55 0.96,-2.59 0,-1.04 -0.32,-1.9 -0.96,-2.59 -0.64,-0.69 -1.44,-1.03 -2.4,-1.03zm12.99 0.93c-1.1,-0.49 -1.98,-0.73 -2.66,-0.73 -0.47,0 -0.83,0.08 -1.1,0.25 -0.27,0.17 -0.4,0.4 -0.4,0.7 0,0.23 0.07,0.41 0.2,0.56 0.13,0.15 0.69,0.48 1.68,1.01 0.98,0.53 1.71,1.02 2.17,1.49 0.47,0.47 0.7,1.08 0.7,1.83 0,0.92 -0.32,1.64 -0.95,2.14 -0.63,0.51 -1.52,0.76 -2.66,0.76 -0.26,0 -0.46,-0.01 -0.6,-0.03 -0.14,-0.02 -0.33,-0.05 -0.57,-0.08 -0.24,-0.03 -0.47,-0.08 -0.68,-0.15 -0.22,-0.07 -0.62,-0.24 -1.21,-0.52l-0.67 -0.31 0.82 -1.8c0.65,0.35 1.19,0.61 1.62,0.77 0.43,0.16 0.87,0.24 1.31,0.24 0.46,0 0.82,-0.09 1.09,-0.28 0.27,-0.19 0.4,-0.43 0.4,-0.75 0,-0.23 -0.06,-0.42 -0.19,-0.57 -0.12,-0.16 -0.36,-0.33 -0.71,-0.53l-1.58 -0.9c-0.91,-0.52 -1.54,-0.98 -1.87,-1.39 -0.34,-0.41 -0.5,-0.89 -0.5,-1.45 0,-0.53 0.11,-0.97 0.33,-1.31 0.22,-0.35 0.51,-0.64 0.85,-0.89 0.35,-0.24 0.71,-0.42 1.1,-0.52 0.39,-0.1 0.87,-0.16 1.45,-0.16 0.68,0 1.22,0.06 1.62,0.18 0.4,0.12 0.71,0.22 0.95,0.31 0.23,0.09 0.5,0.21 0.82,0.37l-0.78 1.75zm14.35 6.31c-0.94,1 -2.33,1.5 -4.15,1.5l-3.79 0 0 -10.24 3.81 0c0.97,0 1.78,0.11 2.42,0.34 0.64,0.23 1.2,0.6 1.69,1.11 0.48,0.51 0.84,1.08 1.08,1.7 0.24,0.62 0.36,1.27 0.36,1.94 0,1.43 -0.47,2.64 -1.41,3.65zm-1.88 -6.4c-0.55,-0.4 -1.37,-0.6 -2.45,-0.6l-1.55 0 0 6.79 1.55 0c1.16,0 2.06,-0.29 2.69,-0.88 0.63,-0.59 0.95,-1.43 0.95,-2.53 0,-0.59 -0.11,-1.13 -0.32,-1.63 -0.21,-0.49 -0.5,-0.88 -0.86,-1.15zm5.08 7.91l0 -10.24 6.24 0 0 1.66 -4.29 0 0 2.52 3.51 0 0 1.66 -3.51 0 0 2.73 4.49 0 0 1.66 -6.45 0zm8.37 0l0 -10.24 1.96 0 0 8.57 4.19 0 0 1.66 -6.15 0zm17.34 0l-0.81 -2.53 -3.43 0 -0.84 2.53 -2.05 0 3.71 -10.24 1.76 0 3.71 10.24 -2.05 0zm-2.53 -7.89l-1.18 3.7 2.37 0 -1.2 -3.7zm12.54 -3.03c-0.41,0.17 -0.77,0.25 -1.08,0.25 -0.38,0 -0.76,-0.1 -1.14,-0.31 -0.38,-0.21 -0.62,-0.33 -0.71,-0.36 -0.1,-0.03 -0.22,-0.05 -0.37,-0.05 -0.17,0 -0.31,0.02 -0.42,0.06 -0.12,0.04 -0.3,0.14 -0.54,0.29l-0.23 0.15 -0.51 -0.89c0.06,-0.04 0.2,-0.12 0.4,-0.25 0.21,-0.12 0.44,-0.24 0.69,-0.36 0.25,-0.11 0.53,-0.17 0.82,-0.17l0.17 0c0.2,0.02 0.38,0.07 0.54,0.16 0.17,0.08 0.4,0.2 0.69,0.36 0.29,0.16 0.56,0.24 0.8,0.24 0.26,0 0.46,-0.04 0.61,-0.12 0.15,-0.08 0.38,-0.23 0.69,-0.45l0.51 0.82c-0.19,0.18 -0.34,0.3 -0.45,0.38 -0.11,0.08 -0.27,0.16 -0.47,0.24zm0.3 11.02l-4.39 -6.64 -0.21 -0.4 -0.12 -0.21 -0.14 -0.35 0 7.5 -1.86 0 0 -10.24 2.25 0 4.29 6.73 0.11 0.22 0.09 0.2 0.09 0.26 0.09 0.18 0 -7.6 1.86 0 0 10.33 -2.06 0.01zm9.5 0.1c-1.61,0 -2.92,-0.5 -3.93,-1.49 -1.02,-0.99 -1.52,-2.27 -1.52,-3.84 0,-1.58 0.51,-2.87 1.51,-3.84 1.01,-0.98 2.32,-1.47 3.94,-1.47 1.63,0 2.94,0.49 3.94,1.47 1,0.98 1.5,2.26 1.5,3.84 0,1.56 -0.51,2.84 -1.52,3.84 -1.02,0.99 -2.32,1.49 -3.91,1.49zm0 -8.95c-0.97,0 -1.78,0.34 -2.42,1.03 -0.64,0.69 -0.96,1.55 -0.96,2.59 0,1.06 0.32,1.92 0.95,2.6 0.63,0.68 1.44,1.02 2.42,1.02 0.96,0 1.76,-0.34 2.4,-1.03 0.64,-0.69 0.96,-1.55 0.96,-2.59 0,-1.04 -0.32,-1.9 -0.96,-2.59 -0.64,-0.69 -1.44,-1.03 -2.4,-1.03z"/>
  <path class="fil1" d="M24.76 33.35c-5.6,-3.18 -9.43,-6.03 -11.5,-8.54 -2.07,-2.51 -3.1,-5.49 -3.1,-8.92 0,-3.24 0.68,-5.93 2.05,-8.06 1.37,-2.13 3.12,-3.94 5.25,-5.44 1.4,-0.98 2.85,-1.78 4.36,-2.39l-13.98 0c-4.32,0 -7.85,3.53 -7.85,7.85l0 46.03c0,3.59 2.44,6.63 5.74,7.56l2.08 -4.61 -0.04 -0.02 5.06 -11.07c4.01,2.16 7.33,3.74 9.97,4.72 2.64,0.99 5.33,1.48 8.06,1.48 2.8,0 5.02,-0.57 6.68,-1.72 1.65,-1.14 2.48,-2.67 2.48,-4.58 0,-1.4 -0.38,-2.58 -1.15,-3.53 -0.76,-0.95 -2.23,-2.04 -4.39,-3.24l-9.73 -5.53zm8.11 -23.56c-2.86,0 -5.12,0.51 -6.77,1.53 -1.65,1.02 -2.48,2.45 -2.48,4.29 0,1.4 0.41,2.54 1.24,3.43 0.83,0.89 4.26,2.96 10.3,6.2 6.04,3.24 10.49,6.3 13.36,9.16 2.86,2.86 4.29,6.61 4.29,11.26 0,5.66 -1.94,10.05 -5.82,13.17 -1.5,1.2 -3.23,2.18 -5.2,2.92l12.09 0c4.32,0 7.85,-3.53 7.85,-7.85l0 -46.03c0,-3.78 -2.71,-6.96 -6.29,-7.69l-6.27 14.11c-6.74,-2.99 -12.18,-4.48 -16.31,-4.48z"/>
 </g>
</svg>
